<svg width="42" height="18" viewBox="0 0 42 18" fill="none" xmlns="http://www.w3.org/2000/svg">
<path d="M7.77844 0.0242823C8.31139 0.0485646 8.84085 0.114474 9.37031 0.194258C9.45739 0.208134 9.48526 0.232416 9.48526 0.322608C9.48178 1.14821 9.48178 1.97727 9.48526 2.80287C9.48526 2.92081 9.43649 2.93122 9.33896 2.93122C8.85827 2.93122 8.37409 2.92428 7.89339 2.94163C6.90762 2.97632 6.29804 3.59031 6.28062 4.57201C6.27017 5.23804 6.28062 5.9006 6.27366 6.56663C6.27366 6.70191 6.31546 6.7262 6.44086 6.7262C7.35348 6.71926 8.26262 6.7262 9.17525 6.71926C9.332 6.71926 9.3529 6.76088 9.32851 6.90658C9.17525 7.85359 9.03243 8.8006 8.88962 9.74761C8.8722 9.87596 8.8304 9.91758 8.69455 9.91758C7.96306 9.91064 7.23156 9.92105 6.50007 9.91064C6.32591 9.90718 6.27017 9.94186 6.27017 10.1327C6.27714 12.5609 6.27366 14.9891 6.28062 17.4173C6.28062 17.5908 6.22837 17.6359 6.06814 17.6567C5.05102 17.792 4.0339 17.785 3.01329 17.6567C2.86351 17.6359 2.81474 17.5908 2.81474 17.4347C2.82171 14.996 2.81822 12.5539 2.82171 10.1153C2.82171 9.94186 2.77294 9.91064 2.60923 9.91064C1.79065 9.91758 0.972074 9.91064 0.153498 9.91758C0.0315828 9.91758 -0.00325019 9.88289 0.000233106 9.76495C0.00371641 8.80407 0.00371641 7.84665 0.000233106 6.88576C0.000233106 6.75742 0.0280995 6.72273 0.160465 6.72273C0.986007 6.72966 1.80807 6.71926 2.63361 6.72966C2.79384 6.73313 2.82171 6.6811 2.82171 6.53541C2.81822 5.66124 2.79732 4.78708 2.83216 3.91639C2.87396 2.8549 3.18745 1.88361 3.96423 1.10658C4.55987 0.509928 5.29485 0.201196 6.11691 0.0659091C6.22837 0.0485646 6.34681 0.0589713 6.44782 0C6.77177 0 7.0992 0 7.42315 0C7.54158 0.0381579 7.66349 -0.0138756 7.77844 0.0242823Z" fill="white"/>
<path d="M41.8358 7.69277C41.8084 7.56098 41.7742 7.49161 41.6132 7.49161C39.0077 7.49855 36.3987 7.49855 33.7931 7.49161C33.6493 7.49161 33.6116 7.53323 33.615 7.67543C33.6219 8.68815 33.6185 9.6974 33.6185 10.7101C33.6185 10.9286 33.6185 10.9286 33.841 10.9286C35.2722 10.9286 36.7034 10.9321 38.1346 10.9251C38.2989 10.9251 38.3229 10.9668 38.2818 11.1194C38.114 11.7749 37.823 12.3575 37.3779 12.8639C37.1314 13.1483 36.8301 13.3668 36.539 13.5957C36.4979 13.613 36.4569 13.6304 36.4158 13.6512C35.3099 14.2893 34.1081 14.4974 32.8686 14.2997C30.8725 13.9806 29.4995 12.8327 28.7497 10.9286C28.7292 10.8766 28.7018 10.8246 28.6744 10.776C28.6607 10.7136 28.6538 10.6512 28.6367 10.5922C28.4621 9.99566 28.397 9.38526 28.4347 8.76098C28.4621 8.31358 28.5717 7.88699 28.6778 7.45693C28.6983 7.41184 28.7257 7.36676 28.7429 7.3182C28.9825 6.63843 29.3455 6.03843 29.8385 5.52167C30.8109 4.49854 31.999 3.94363 33.3993 3.88467C34.6285 3.83265 35.7378 4.19334 36.7137 4.95288C36.8095 5.02918 36.8609 5.02918 36.9499 4.93901C37.7237 4.14825 38.5043 3.3575 39.285 2.57715C39.3843 2.47657 39.3637 2.43495 39.2679 2.35519C37.9908 1.28004 36.539 0.593332 34.8921 0.340152C34.6833 0.308938 34.4642 0.319343 34.2622 0.243042C33.817 0.243042 33.3719 0.243042 32.9268 0.243042C32.7488 0.274256 32.5639 0.260383 32.3859 0.284661C30.9992 0.471944 29.7255 0.971367 28.5751 1.77946C27.4281 2.58756 26.5139 3.62802 25.8394 4.88351C25.788 4.97716 25.7196 5.06733 25.7264 5.18525C25.7298 5.19565 25.7333 5.20259 25.7367 5.213C25.5655 5.51473 25.4457 5.83727 25.3361 6.16329C24.7266 7.94248 24.6753 9.74249 25.1752 11.5598C25.3121 12.0627 25.4867 12.5587 25.7367 13.0165C25.7333 13.0269 25.7264 13.0373 25.723 13.0477C25.7161 13.1656 25.788 13.2558 25.8394 13.3494C26.3735 14.3448 27.0651 15.2119 27.9211 15.9402C29.0373 16.8905 30.311 17.5217 31.7353 17.8373C32.1325 17.924 32.5331 17.9552 32.9337 17.9934C33.3343 17.9934 33.7315 17.9934 34.132 17.9934C34.1629 17.9622 34.2074 17.9691 34.245 17.9656C35.3236 17.8963 36.3507 17.6257 37.3265 17.1541C38.0592 16.8003 38.7337 16.3564 39.3158 15.7772C39.3398 15.7598 39.3637 15.746 39.3843 15.7286C40.4594 14.6847 41.1955 13.4361 41.5995 11.9899C41.9933 10.5749 42.1234 9.14595 41.8358 7.69277Z" fill="white"/>
</svg>
