<svg width="65" height="27" viewBox="0 0 65 27" fill="none" xmlns="http://www.w3.org/2000/svg">
<g filter="url(#filter0_b_104_1649)">
<path d="M13.3333 0.473934L51.1897 0.736456C58.2428 0.785367 63.9208 6.54268 63.8719 13.5958C63.823 20.6489 58.0657 26.3269 51.0126 26.278L13.1562 26.0155C6.1031 25.9666 0.425088 20.2092 0.473999 13.1561C0.52291 6.10304 6.28023 0.425023 13.3333 0.473934Z" stroke="white" stroke-width="0.765457"/>
</g>
<circle cx="13.7112" cy="13.196" r="3.82728" transform="rotate(0.397321 13.7112 13.196)" fill="url(#paint0_linear_104_1649)"/>
<path d="M27.3173 17.7645C29.2462 17.7778 30.5222 16.1256 30.5393 13.6609C30.5564 11.1962 29.2926 9.53706 27.3637 9.52368C25.4562 9.51045 24.1589 11.1411 24.1418 13.6165C24.1246 16.092 25.4098 17.7512 27.3173 17.7645ZM27.3259 16.5214C26.19 16.5135 25.4797 15.4048 25.492 13.6259C25.5043 11.847 26.2192 10.7589 27.3551 10.7668C28.5124 10.7748 29.2121 11.8727 29.1998 13.6516C29.1874 15.4412 28.4725 16.5293 27.3259 16.5214ZM34.6742 17.8155C36.6031 17.8289 37.8791 16.1766 37.8962 13.7119C37.9133 11.2472 36.6495 9.58807 34.7206 9.5747C32.8131 9.56147 31.5158 11.1921 31.4986 13.6675C31.4815 16.143 32.7667 17.8023 34.6742 17.8155ZM34.6828 16.5724C33.5469 16.5645 32.8365 15.4558 32.8489 13.6769C32.8612 11.898 33.5761 10.8099 34.712 10.8178C35.8693 10.8258 36.569 11.9237 36.5567 13.7026C36.5442 15.4922 35.8294 16.5804 34.6828 16.5724ZM39.2328 13.3997L40.5616 13.4089L40.5716 11.9622L39.2428 11.953L39.2328 13.3997ZM39.2029 17.7183L40.5317 17.7275L40.5417 16.2808L39.2129 16.2716L39.2029 17.7183ZM45.3472 12.8205L47.0326 10.8711L47.0401 9.78873L42.1857 9.75506L42.1777 10.9017L45.5104 10.9355L43.4364 13.3002L43.6996 13.9772C43.9145 13.893 44.2042 13.8414 44.4828 13.8433C45.383 13.8496 45.9685 14.4109 45.9627 15.2468C45.9568 16.104 45.3527 16.6678 44.4633 16.6617C43.7024 16.6564 43.1159 16.2451 42.8529 15.5253L41.7665 16.1071C42.1662 17.1923 43.1903 17.8745 44.4548 17.8833C46.0944 17.8947 47.3025 16.7671 47.3132 15.224C47.3219 13.9702 46.5247 13.0216 45.3472 12.8205ZM51.4914 17.9321C53.4203 17.9455 54.6963 16.2932 54.7134 13.8285C54.7305 11.3638 53.4667 9.70469 51.5378 9.69132C49.6303 9.67809 48.333 11.3087 48.3159 13.7842C48.2987 16.2596 49.5839 17.9189 51.4914 17.9321ZM51.5 16.689C50.3641 16.6812 49.6538 15.5724 49.6661 13.7935C49.6784 12.0147 50.3933 10.9265 51.5292 10.9344C52.6865 10.9424 53.3862 12.0404 53.3739 13.8192C53.3615 15.6088 52.6466 16.697 51.5 16.689Z" fill="white"/>
<defs>
<filter id="filter0_b_104_1649" x="-8.32908" y="-8.32921" width="81.0041" height="43.4104" filterUnits="userSpaceOnUse" color-interpolation-filters="sRGB">
<feFlood flood-opacity="0" result="BackgroundImageFix"/>
<feGaussianBlur in="BackgroundImageFix" stdDeviation="4.21001"/>
<feComposite in2="SourceAlpha" operator="in" result="effect1_backgroundBlur_104_1649"/>
<feBlend mode="normal" in="SourceGraphic" in2="effect1_backgroundBlur_104_1649" result="shape"/>
</filter>
<linearGradient id="paint0_linear_104_1649" x1="13.7112" y1="9.36873" x2="13.7112" y2="17.0233" gradientUnits="userSpaceOnUse">
<stop stop-color="#A65AF2"/>
<stop offset="1" stop-color="#CD5B97"/>
</linearGradient>
</defs>
</svg>
